<svg width="175" height="164" viewBox="0 0 175 164" fill="none" xmlns="http://www.w3.org/2000/svg">
<path d="M171.395 82.1645C171.395 38.7832 133.699 3.61572 87.1976 3.61572C40.6965 3.61572 3 38.7832 3 82.1645C3 125.546 40.6965 160.713 87.1976 160.713C133.699 160.713 171.395 125.546 171.395 82.1645Z" stroke="#3C3C3B" stroke-width="6" stroke-linecap="round" stroke-linejoin="round"/>
<path d="M137.981 55.6787H36.4028V120.27H137.981V55.6787Z" stroke="#3C3C3B" stroke-width="6" stroke-linecap="round" stroke-linejoin="round"/>
<path d="M128.898 64.1694H45.5063V111.784H128.898V64.1694Z" stroke="#3C3C3B" stroke-width="6" stroke-linecap="round" stroke-linejoin="round"/>
<path d="M137.991 55.6787L128.887 64.1715" stroke="#3C3C3B" stroke-width="6" stroke-linecap="round" stroke-linejoin="round"/>
<path d="M128.887 111.784L137.991 120.267" stroke="#3C3C3B" stroke-width="6" stroke-linecap="round" stroke-linejoin="round"/>
<path d="M45.5064 111.784L36.4028 120.277" stroke="#3C3C3B" stroke-width="6" stroke-linecap="round" stroke-linejoin="round"/>
<path d="M36.4028 55.6787L45.5064 64.1715" stroke="#3C3C3B" stroke-width="6" stroke-linecap="round" stroke-linejoin="round"/>
<path d="M58.4478 55.6763L87.1974 28.8174L115.947 55.6763" stroke="#3C3C3B" stroke-width="6" stroke-linecap="round" stroke-linejoin="round"/>
</svg>
