<svg width="176" height="165" viewBox="0 0 176 165" fill="none" xmlns="http://www.w3.org/2000/svg">
<path d="M172.925 82.7773C172.925 39.0576 134.934 3.61572 88.0703 3.61572C41.2065 3.61572 3.21582 39.0576 3.21582 82.7773C3.21582 126.497 41.2065 161.939 88.0703 161.939C134.934 161.939 172.925 126.497 172.925 82.7773Z" stroke="#3C3C3B" stroke-width="6" stroke-linecap="round" stroke-linejoin="round"/>
<path d="M124.434 65.1101L106.993 48.8398L54.3085 97.9899L71.7488 114.26L124.434 65.1101Z" stroke="#3C3C3B" stroke-width="6" stroke-linecap="round" stroke-linejoin="round"/>
<path d="M124.449 65.1382L106.974 48.8357L135.495 38.5303L124.449 65.1382Z" stroke="#3C3C3B" stroke-width="6" stroke-linecap="round" stroke-linejoin="round"/>
<path d="M71.7677 114.286L54.291 97.9814L45.0836 106.571L62.5603 122.875L71.7677 114.286Z" stroke="#3C3C3B" stroke-width="6" stroke-linecap="round" stroke-linejoin="round"/>
<path d="M45.0732 106.578L62.5499 122.882L60.819 124.497C56.6953 128.344 49.9897 128.344 45.866 124.497L43.3423 122.143C39.2186 118.296 39.2186 112.04 43.3423 108.193L45.0732 106.578Z" stroke="#3C3C3B" stroke-width="6" stroke-linecap="round" stroke-linejoin="round"/>
<path d="M63.1064 106.062L115.737 56.9624" stroke="#3C3C3B" stroke-width="6" stroke-linecap="round" stroke-linejoin="round"/>
<path d="M126.649 41.6499L132.029 46.6683" stroke="#3C3C3B" stroke-width="6" stroke-linecap="round" stroke-linejoin="round"/>
</svg>
