<svg width="175" height="164" viewBox="0 0 175 164" fill="none" xmlns="http://www.w3.org/2000/svg">
<path d="M171.771 81.642C171.771 38.2607 134.075 3.09326 87.5735 3.09326C41.0725 3.09326 3.37598 38.2607 3.37598 81.642C3.37598 125.023 41.0725 160.191 87.5735 160.191C134.075 160.191 171.771 125.023 171.771 81.642Z" stroke="#3C3C3B" stroke-width="6" stroke-linecap="round" stroke-linejoin="round"/>
<path d="M60.7217 111.624H126.222V133.637H60.7217C54.2104 133.637 48.9238 128.705 48.9238 122.63C48.9238 116.556 54.2104 111.624 60.7217 111.624Z" stroke="#3C3C3B" stroke-width="6" stroke-linecap="round" stroke-linejoin="round"/>
<path d="M126.222 122.631V29.6484H60.7421C54.2206 29.6484 48.9238 34.5803 48.9238 40.6738V122.631" stroke="#3C3C3B" stroke-width="6" stroke-linecap="round" stroke-linejoin="round"/>
<path d="M78.3977 122.565L67.998 128.64V116.624H78.3977V122.565Z" stroke="#3C3C3B" stroke-width="6" stroke-linecap="round" stroke-linejoin="round"/>
<path d="M101.953 53.3647H73.2031V80.1856H101.953V53.3647Z" stroke="#3C3C3B" stroke-width="6" stroke-linecap="round" stroke-linejoin="round"/>
</svg>
