<svg width="175" height="164" viewBox="0 0 175 164" fill="none" xmlns="http://www.w3.org/2000/svg">
<path d="M171.39 82.1645C171.39 38.7832 133.694 3.61572 87.1927 3.61572C40.6917 3.61572 2.99512 38.7832 2.99512 82.1645C2.99512 125.546 40.6917 160.713 87.1927 160.713C133.694 160.713 171.39 125.546 171.39 82.1645Z" stroke="#3C3C3B" stroke-width="6" stroke-linecap="round" stroke-linejoin="round"/>
<path d="M118.371 63.5035C115.289 66.3788 110.298 66.3788 107.216 63.5035C104.134 60.6281 104.134 55.9723 107.216 53.0969C110.298 50.2216 115.289 50.2216 118.371 53.0969C121.453 55.9723 121.453 60.6281 118.371 63.5035Z" stroke="#3C3C3B" stroke-width="6" stroke-linecap="round" stroke-linejoin="round"/>
<path d="M86.4994 55.4945C90.8564 55.4945 94.3885 52.1994 94.3885 48.1347C94.3885 44.07 90.8564 40.7749 86.4994 40.7749C82.1424 40.7749 78.6104 44.07 78.6104 48.1347C78.6104 52.1994 82.1424 55.4945 86.4994 55.4945Z" stroke="#3C3C3B" stroke-width="6" stroke-linecap="round" stroke-linejoin="round"/>
<path d="M65.7819 53.0843C68.8641 55.9596 68.8641 60.6154 65.7819 63.4908C62.6998 66.3661 57.7092 66.3661 54.627 63.4908C51.5449 60.6154 51.5449 55.9596 54.627 53.0843C57.7092 50.2089 62.6998 50.2089 65.7819 53.0843Z" stroke="#3C3C3B" stroke-width="6" stroke-linecap="round" stroke-linejoin="round"/>
<path d="M107.216 112.565C104.134 109.69 104.134 105.034 107.216 102.158C110.298 99.2831 115.289 99.2831 118.371 102.158C121.453 105.034 121.453 109.69 118.371 112.565C115.289 115.44 110.298 115.44 107.216 112.565Z" stroke="#3C3C3B" stroke-width="6" stroke-linecap="round" stroke-linejoin="round"/>
<path d="M131.475 84.0177C132.175 80.0057 129.255 76.2243 124.955 75.5716C120.654 74.919 116.601 77.6422 115.902 81.6542C115.202 85.6661 118.121 89.4475 122.421 90.1002C126.722 90.7529 130.775 88.0296 131.475 84.0177Z" stroke="#3C3C3B" stroke-width="6" stroke-linecap="round" stroke-linejoin="round"/>
<path d="M124.792 118.552C147.377 97.4824 145.846 62.4258 120.189 43.2504C100.4 28.4642 71.8542 28.6546 52.2592 43.6598C43.4414 50.4198 37.5527 59.084 34.593 68.3765C29.98 82.8866 44.4416 96.4541 60.1176 92.541C69.8029 90.1131 78.6717 98.3869 76.0794 107.422C71.8849 122.037 86.3873 135.538 101.931 131.254C110.299 128.94 118.188 124.703 124.802 118.543L124.792 118.552Z" stroke="#3C3C3B" stroke-width="6" stroke-linecap="round" stroke-linejoin="round"/>
</svg>
